HIERARCHY
ROOT Hips
{
  OFFSET 0.000 61.434 0.000
  CHANNELS 6 Xposition Yposition Zposition Zrotation Xrotation Yrotation
  JOINT LeftUpLeg
  {
    OFFSET 7.079 0.380 3.003
    CHANNELS 6 Xposition Yposition Zposition Zrotation Xrotation Yrotation
    JOINT LeftLeg
    {
      OFFSET 0.000 -27.611 0.000
      CHANNELS 6 Xposition Yposition Zposition Zrotation Xrotation Yrotation
      JOINT LeftFoot
      {
        OFFSET 0.000 -34.203 0.000
        CHANNELS 6 Xposition Yposition Zposition Zrotation Xrotation Yrotation
        End Site
        {
          OFFSET 0.000 0.000 8.564
        }
      }
    }
  }
  JOINT RightUpLeg
  {
    OFFSET -7.079 0.380 3.003
    CHANNELS 6 Xposition Yposition Zposition Zrotation Xrotation Yrotation
    JOINT RightLeg
    {
      OFFSET 0.000 -27.611 0.000
      CHANNELS 6 Xposition Yposition Zposition Zrotation Xrotation Yrotation
      JOINT RightFoot
      {
        OFFSET 0.000 -34.203 0.000
        CHANNELS 6 Xposition Yposition Zposition Zrotation Xrotation Yrotation
        End Site
        {
          OFFSET 0.000 0.000 8.564
        }
      }
    }
  }
  JOINT Spine
  {
    OFFSET 0.000 30.523 0.000
    CHANNELS 6 Xposition Yposition Zposition Zrotation Xrotation Yrotation
    JOINT Spine1
    {
      OFFSET 0.000 22.256 0.000
      CHANNELS 6 Xposition Yposition Zposition Zrotation Xrotation Yrotation
      JOINT LeftShoulder
      {
        OFFSET 1.097 -0.431 0.769
        CHANNELS 6 Xposition Yposition Zposition Zrotation Xrotation Yrotation
        JOINT LeftArm
        {
          OFFSET 13.535 0.000 0.000
          CHANNELS 6 Xposition Yposition Zposition Zrotation Xrotation Yrotation
          JOINT LeftForeArm
          {
            OFFSET 19.536 0.000 0.000
            CHANNELS 6 Xposition Yposition Zposition Zrotation Xrotation Yrotation
            JOINT LeftHand
            {
              OFFSET 17.663 0.000 0.000
              CHANNELS 6 Xposition Yposition Zposition Zrotation Xrotation Yrotation
              JOINT LeftHandThumb1
              {
                OFFSET 4.877 -1.044 3.608
                CHANNELS 6 Xposition Yposition Zposition Zrotation Xrotation Yrotation
                JOINT LeftHandThumb2
                {
                  OFFSET 2.665 0.000 0.000
                  CHANNELS 6 Xposition Yposition Zposition Zrotation Xrotation Yrotation
                  JOINT LeftHandThumb3
                  {
                    OFFSET 2.543 0.000 0.000
                    CHANNELS 6 Xposition Yposition Zposition Zrotation Xrotation Yrotation
                    End Site
                    {
                      OFFSET 2.667 0.000 0.000
                    }
                  }
                }
              }
              JOINT LeftHandIndex1
              {
                OFFSET 9.232 -0.301 2.144
                CHANNELS 6 Xposition Yposition Zposition Zrotation Xrotation Yrotation
                JOINT LeftHandIndex2
                {
                  OFFSET 4.225 0.000 -0.000
                  CHANNELS 6 Xposition Yposition Zposition Zrotation Xrotation Yrotation
                  JOINT LeftHandIndex3
                  {
                    OFFSET 2.654 -0.000 0.000
                    CHANNELS 6 Xposition Yposition Zposition Zrotation Xrotation Yrotation
                    End Site
                    {
                      OFFSET 1.958 0.000 0.000
                    }
                  }
                }
              }
              JOINT LeftHandMiddle1
              {
                OFFSET 8.920 0.000 0.000
                CHANNELS 6 Xposition Yposition Zposition Zrotation Xrotation Yrotation
                JOINT LeftHandMiddle2
                {
                  OFFSET 4.863 0.000 0.000
                  CHANNELS 6 Xposition Yposition Zposition Zrotation Xrotation Yrotation
                  JOINT LeftHandMiddle3
                  {
                    OFFSET 2.765 0.000 0.000
                    CHANNELS 6 Xposition Yposition Zposition Zrotation Xrotation Yrotation
                    End Site
                    {
                      OFFSET 2.006 0.000 0.000
                    }
                  }
                }
              }
              JOINT LeftHandRing1
              {
                OFFSET 8.689 -0.126 -2.087
                CHANNELS 6 Xposition Yposition Zposition Zrotation Xrotation Yrotation
                JOINT LeftHandRing2
                {
                  OFFSET 4.538 0.000 0.000
                  CHANNELS 6 Xposition Yposition Zposition Zrotation Xrotation Yrotation
                  JOINT LeftHandRing3
                  {
                    OFFSET 2.305 0.000 0.000
                    CHANNELS 6 Xposition Yposition Zposition Zrotation Xrotation Yrotation
                    End Site
                    {
                      OFFSET 1.923 0.000 0.000
                    }
                  }
                }
              }
              JOINT LeftHandPinky1
              {
                OFFSET 8.391 -0.817 -3.758
                CHANNELS 6 Xposition Yposition Zposition Zrotation Xrotation Yrotation
                JOINT LeftHandPinky2
                {
                  OFFSET 3.044 0.000 0.000
                  CHANNELS 6 Xposition Yposition Zposition Zrotation Xrotation Yrotation
                  JOINT LeftHandPinky3
                  {
                    OFFSET 1.975 0.000 0.000
                    CHANNELS 6 Xposition Yposition Zposition Zrotation Xrotation Yrotation
                    End Site
                    {
                      OFFSET 1.667 -0.000 0.000
                    }
                  }
                }
              }
            }
          }
        }
      }
      JOINT RightShoulder
      {
        OFFSET -1.097 -0.431 0.769
        CHANNELS 6 Xposition Yposition Zposition Zrotation Xrotation Yrotation
        JOINT RightArm
        {
          OFFSET -13.535 0.000 0.000
          CHANNELS 6 Xposition Yposition Zposition Zrotation Xrotation Yrotation
          JOINT RightForeArm
          {
            OFFSET -19.536 0.000 0.000
            CHANNELS 6 Xposition Yposition Zposition Zrotation Xrotation Yrotation
            JOINT RightHand
            {
              OFFSET -17.663 0.000 0.000
              CHANNELS 6 Xposition Yposition Zposition Zrotation Xrotation Yrotation
              JOINT RightHandThumb1
              {
                OFFSET -4.877 -1.044 3.608
                CHANNELS 6 Xposition Yposition Zposition Zrotation Xrotation Yrotation
                JOINT RightHandThumb2
                {
                  OFFSET -2.665 -0.000 0.000
                  CHANNELS 6 Xposition Yposition Zposition Zrotation Xrotation Yrotation
                  JOINT RightHandThumb3
                  {
                    OFFSET -2.543 0.000 0.000
                    CHANNELS 6 Xposition Yposition Zposition Zrotation Xrotation Yrotation
                    End Site
                    {
                      OFFSET -2.667 0.000 0.000
                    }
                  }
                }
              }
              JOINT RightHandIndex1
              {
                OFFSET -9.232 -0.301 2.144
                CHANNELS 6 Xposition Yposition Zposition Zrotation Xrotation Yrotation
                JOINT RightHandIndex2
                {
                  OFFSET -4.225 -0.000 0.000
                  CHANNELS 6 Xposition Yposition Zposition Zrotation Xrotation Yrotation
                  JOINT RightHandIndex3
                  {
                    OFFSET -2.654 0.000 0.000
                    CHANNELS 6 Xposition Yposition Zposition Zrotation Xrotation Yrotation
                    End Site
                    {
                      OFFSET -1.958 -0.000 0.000
                    }
                  }
                }
              }
              JOINT RightHandMiddle1
              {
                OFFSET -8.920 -0.000 -0.000
                CHANNELS 6 Xposition Yposition Zposition Zrotation Xrotation Yrotation
                JOINT RightHandMiddle2
                {
                  OFFSET -4.863 -0.000 -0.000
                  CHANNELS 6 Xposition Yposition Zposition Zrotation Xrotation Yrotation
                  JOINT RightHandMiddle3
                  {
                    OFFSET -2.765 -0.000 0.000
                    CHANNELS 6 Xposition Yposition Zposition Zrotation Xrotation Yrotation
                    End Site
                    {
                      OFFSET -2.006 0.000 -0.000
                    }
                  }
                }
              }
              JOINT RightHandRing1
              {
                OFFSET -8.689 -0.126 -2.087
                CHANNELS 6 Xposition Yposition Zposition Zrotation Xrotation Yrotation
                JOINT RightHandRing2
                {
                  OFFSET -4.538 -0.000 0.000
                  CHANNELS 6 Xposition Yposition Zposition Zrotation Xrotation Yrotation
                  JOINT RightHandRing3
                  {
                    OFFSET -2.305 0.000 0.000
                    CHANNELS 6 Xposition Yposition Zposition Zrotation Xrotation Yrotation
                    End Site
                    {
                      OFFSET -1.923 0.000 -0.000
                    }
                  }
                }
              }
              JOINT RightHandPinky1
              {
                OFFSET -8.391 -0.817 -3.758
                CHANNELS 6 Xposition Yposition Zposition Zrotation Xrotation Yrotation
                JOINT RightHandPinky2
                {
                  OFFSET -3.044 -0.000 0.000
                  CHANNELS 6 Xposition Yposition Zposition Zrotation Xrotation Yrotation
                  JOINT RightHandPinky3
                  {
                    OFFSET -1.975 0.000 0.000
                    CHANNELS 6 Xposition Yposition Zposition Zrotation Xrotation Yrotation
                    End Site
                    {
                      OFFSET -1.667 0.000 -0.000
                    }
                  }
                }
              }
            }
          }
        }
      }
      JOINT Neck
      {
        OFFSET 0.000 0.729 0.000
        CHANNELS 6 Xposition Yposition Zposition Zrotation Xrotation Yrotation
        JOINT Head
        {
          OFFSET 0.000 6.237 0.000
          CHANNELS 6 Xposition Yposition Zposition Zrotation Xrotation Yrotation
          End Site
          {
            OFFSET 0.000 12.466 0.000
          }
        }
      }
    }
  }
}
MOTION
Frames:	4
Frame Time:	0.033333
-78.49422 69.21822 -183.85719 0.95782 -2.82742 10.03633 8.96714 0.87922 3.09068 6.71875 -11.43672 15.35463 0.00846 -26.36224 -0.00607 8.37061 11.69763 -6.33321 -0.00850 -33.86385 -0.00090 1.24012 14.58668 -4.88544 -7.49316 0.33567 3.08643 -3.98071 11.26817 4.22908 0.00012 -29.43339 -0.00064 -1.15594 -6.06122 -9.14521 -0.00069 -32.69466 -0.00175 1.72592 -11.70311 -2.22688 0.00057 30.32378 -0.00299 -0.34995 1.60849 4.36364 0.00335 22.28158 -0.00911 -0.28515 2.24261 4.11066 1.06678 -0.50467 0.82233 -16.33842 12.22193 -35.83142 12.85808 0.00134 0.00465 -37.75333 -4.06154 3.72499 17.17526 -0.00303 0.00669 166.28061 -14.74790 1.93805 19.92640 -0.02315 0.00027 3.90779 -4.97187 2.15951 4.87702 -1.04400 3.60799 -41.57594 -8.45725 -7.72882 2.66501 0.00000 0.00001 -0.00000 0.00000 5.00000 2.54298 0.00000 0.00001 0.00000 0.00000 60.00001 9.23202 -0.30100 2.14399 -79.99999 -0.00000 -0.00000 4.22499 0.00000 -0.00001 -90.00000 -0.00001 0.00000 2.65399 -0.00001 0.00002 -70.00000 0.00000 -0.00000 8.92000 0.00000 0.00000 -79.99999 -0.00000 -0.00000 4.86301 0.00001 0.00001 -90.00000 -0.00001 0.00000 2.76499 0.00001 0.00000 -70.00000 0.00000 -0.00000 8.68902 -0.12600 -2.08702 -79.99999 -0.00000 -0.00000 4.53801 0.00000 0.00000 -90.00000 -0.00001 0.00000 2.30500 0.00001 0.00001 -70.00000 0.00000 -0.00000 8.39101 -0.81700 -3.75803 -79.99999 -0.00000 -0.00000 3.04400 0.00000 0.00000 -90.00000 -0.00001 0.00000 1.97499 0.00001 0.00000 -70.00000 0.00000 -0.00000 -0.89338 -0.32674 0.82242 11.07000 9.89954 41.31289 -11.30955 -0.00184 0.00082 43.66454 5.81474 -6.48817 -15.24193 0.00490 0.00442 85.45140 38.37370 64.77509 -20.43505 -0.00155 -0.00409 14.50638 14.08102 19.81790 -4.87700 -1.04401 3.60800 37.43813 21.26626 8.20657 -2.66500 -0.00001 0.00000 0.00000 -0.00000 -5.00000 -2.54300 0.00000 0.00000 0.00001 0.00000 -60.00000 -9.23201 -0.30103 2.14398 80.00000 -0.00000 0.00001 -4.22499 -0.00000 0.00001 90.00000 0.00000 0.00001 -2.65400 0.00000 0.00000 70.00000 -0.00000 -0.00000 -8.92000 -0.00002 -0.00001 80.00000 -0.00000 0.00001 -4.86300 -0.00000 -0.00001 90.00000 0.00000 0.00001 -2.76500 -0.00002 0.00000 70.00000 -0.00000 -0.00000 -8.68901 -0.12600 -2.08701 80.00000 -0.00000 0.00001 -4.53799 -0.00000 0.00000 90.00000 0.00000 0.00001 -2.30500 0.00000 0.00001 70.00000 -0.00000 -0.00000 -8.39101 -0.81701 -3.75801 80.00000 -0.00000 0.00001 -3.04399 -0.00000 0.00000 90.00000 0.00000 0.00001 -1.97499 0.00000 0.00001 70.00000 -0.00000 -0.00000 0.00407 0.73212 -0.01195 0.00531 0.00310 0.00564 -0.00082 6.56779 -0.00171 5.14514 -11.68168 22.58784 
-78.47303 69.23729 -183.87358 0.99849 -2.82158 10.08257 8.96714 0.87842 3.09068 6.59343 -11.45978 15.28791 0.00846 -26.38161 -0.00607 8.47259 11.70272 -6.34755 -0.00850 -33.86385 -0.00090 1.24251 14.56928 -4.90057 -7.49316 0.33651 3.08643 -4.04018 11.26738 4.28439 0.00012 -29.47629 -0.00064 -1.12357 -5.90735 -9.09822 -0.00069 -32.67237 -0.00175 1.74437 -23.20787 -0.92045 0.00057 30.31453 -0.00299 -0.34469 1.60857 4.32669 0.00335 22.28158 -0.00911 -0.28371 2.24272 4.07397 1.06678 -0.50467 0.82233 -16.36640 12.22826 -35.79630 12.87955 0.00134 0.00465 -37.72203 -4.12106 3.35862 17.11344 -0.00303 0.00669 165.98576 -14.79325 1.74294 19.96846 -0.02315 0.00027 4.96936 -4.82660 1.98535 4.87702 -1.04400 3.60799 -41.57594 -8.45725 -7.72882 2.66501 0.00000 0.00001 -0.00000 0.00000 5.00000 2.54298 0.00000 0.00001 0.00000 0.00000 60.00001 9.23202 -0.30100 2.14399 -79.99999 -0.00000 -0.00000 4.22499 0.00000 -0.00001 -90.00000 -0.00001 0.00000 2.65399 -0.00001 0.00002 -70.00000 0.00000 -0.00000 8.92000 0.00000 0.00000 -79.99999 -0.00000 -0.00000 4.86301 0.00001 0.00001 -90.00000 -0.00001 0.00000 2.76499 0.00001 0.00000 -70.00000 0.00000 -0.00000 8.68902 -0.12600 -2.08702 -79.99999 -0.00000 -0.00000 4.53801 0.00000 0.00000 -90.00000 -0.00001 0.00000 2.30500 0.00001 0.00001 -70.00000 0.00000 -0.00000 8.39101 -0.81700 -3.75803 -79.99999 -0.00000 -0.00000 3.04400 0.00000 0.00000 -90.00000 -0.00001 0.00000 1.97499 0.00001 0.00000 -70.00000 0.00000 -0.00000 -0.89338 -0.32674 0.82242 11.09730 9.96227 41.41912 -11.29706 -0.00184 0.00082 43.49842 5.71766 -6.88134 -15.24193 0.00490 0.00442 85.44065 38.68866 64.83306 -20.43505 -0.00160 -0.00445 13.85638 14.71901 20.29609 -4.87700 -1.04401 3.60800 37.43813 21.26626 8.20657 -2.66500 -0.00001 0.00000 0.00000 -0.00000 -5.00000 -2.54300 0.00000 0.00000 0.00001 0.00000 -60.00000 -9.23201 -0.30103 2.14398 80.00000 -0.00000 0.00001 -4.22499 -0.00000 0.00001 90.00000 0.00000 0.00001 -2.65400 0.00000 0.00000 70.00000 -0.00000 -0.00000 -8.92000 -0.00002 -0.00001 80.00000 -0.00000 0.00001 -4.86300 -0.00000 -0.00001 90.00000 0.00000 0.00001 -2.76500 -0.00002 0.00000 70.00000 -0.00000 -0.00000 -8.68901 -0.12600 -2.08701 80.00000 -0.00000 0.00001 -4.53799 -0.00000 0.00000 90.00000 0.00000 0.00001 -2.30500 0.00000 0.00001 70.00000 -0.00000 -0.00000 -8.39101 -0.81701 -3.75801 80.00000 -0.00000 0.00001 -3.04399 -0.00000 0.00000 90.00000 0.00000 0.00001 -1.97499 0.00000 0.00001 70.00000 -0.00000 -0.00000 0.00407 0.73212 -0.01195 0.00531 0.00310 0.00564 -0.00082 6.56779 -0.00171 4.90987 -11.67643 21.95731 
-78.43097 69.22835 -183.90205 1.07409 -2.79490 10.16284 8.96714 0.85792 3.09068 6.36195 -11.54571 15.12294 0.00846 -26.37718 -0.00607 8.63552 11.74659 -6.31121 -0.00850 -33.86385 -0.00090 1.24485 14.55061 -4.91595 -7.49316 0.35438 3.08643 -4.14623 11.26668 4.33284 0.00012 -29.52973 -0.00064 -1.11961 -5.75253 -8.98055 -0.00069 -32.64997 -0.00175 1.81531 -32.79132 0.02928 0.00057 30.32671 -0.00299 -0.37293 1.60868 4.27229 0.00335 22.28158 -0.00911 -0.28174 2.24286 4.02369 1.06678 -0.50467 0.82233 -16.38476 12.22480 -35.75662 12.90129 0.00134 0.00465 -37.84581 -4.14034 2.79415 17.14298 -0.00303 0.00669 165.78920 -14.71778 1.51191 19.99850 -0.02315 0.00027 5.21579 -4.56091 1.49252 4.87702 -1.04400 3.60799 -41.57594 -8.45725 -7.72882 2.66501 0.00000 0.00001 -0.00000 0.00000 5.00000 2.54298 0.00000 0.00001 0.00000 0.00000 60.00001 9.23202 -0.30100 2.14399 -79.99999 -0.00000 -0.00000 4.22499 0.00000 -0.00001 -90.00000 -0.00001 0.00000 2.65399 -0.00001 0.00002 -70.00000 0.00000 -0.00000 8.92000 0.00000 0.00000 -79.99999 -0.00000 -0.00000 4.86301 0.00001 0.00001 -90.00000 -0.00001 0.00000 2.76499 0.00001 0.00000 -70.00000 0.00000 -0.00000 8.68902 -0.12600 -2.08702 -79.99999 -0.00000 -0.00000 4.53801 0.00000 0.00000 -90.00000 -0.00001 0.00000 2.30500 0.00001 0.00001 -70.00000 0.00000 -0.00000 8.39101 -0.81700 -3.75803 -79.99999 -0.00000 -0.00000 3.04400 0.00000 0.00000 -90.00000 -0.00001 0.00000 1.97499 0.00001 0.00000 -70.00000 0.00000 -0.00000 -0.89338 -0.32674 0.82242 11.12088 10.02190 41.52519 -11.28386 -0.00184 0.00082 43.24611 5.34404 -7.31523 -15.24193 0.00490 0.00442 82.61575 39.00248 67.69694 -20.43602 -0.01842 0.03200 16.55410 14.60914 17.66404 -4.87700 -1.04401 3.60800 37.43813 21.26626 8.20657 -2.66500 -0.00001 0.00000 0.00000 -0.00000 -5.00000 -2.54300 0.00000 0.00000 0.00001 0.00000 -60.00000 -9.23201 -0.30103 2.14398 80.00000 -0.00000 0.00001 -4.22499 -0.00000 0.00001 90.00000 0.00000 0.00001 -2.65400 0.00000 0.00000 70.00000 -0.00000 -0.00000 -8.92000 -0.00002 -0.00001 80.00000 -0.00000 0.00001 -4.86300 -0.00000 -0.00001 90.00000 0.00000 0.00001 -2.76500 -0.00002 0.00000 70.00000 -0.00000 -0.00000 -8.68901 -0.12600 -2.08701 80.00000 -0.00000 0.00001 -4.53799 -0.00000 0.00000 90.00000 0.00000 0.00001 -2.30500 0.00000 0.00001 70.00000 -0.00000 -0.00000 -8.39101 -0.81701 -3.75801 80.00000 -0.00000 0.00001 -3.04399 -0.00000 0.00000 90.00000 0.00000 0.00001 -1.97499 0.00000 0.00001 70.00000 -0.00000 -0.00000 0.00407 0.73212 -0.01195 0.00531 0.00310 0.00564 -0.00082 6.56779 -0.00171 4.62591 -11.68731 21.39746 
-78.37650 69.24113 -183.93109 1.14485 -2.76827 10.18478 8.96714 0.84732 3.09068 6.12435 -11.59181 15.00716 0.00846 -26.39518 -0.00607 8.81205 11.75079 -6.26098 -0.00850 -33.86385 -0.00090 1.25015 14.53337 -4.94258 -7.49316 0.36590 3.08642 -4.29152 11.26566 4.40319 0.00012 -29.62698 -0.00064 -1.08758 -5.66403 -8.75445 -0.00069 -32.59755 -0.00175 1.74559 -39.24293 0.50997 0.00057 30.32425 -0.00299 -0.40155 1.60976 4.24369 0.00335 22.28158 -0.00911 -0.28897 2.24293 3.99737 1.06678 -0.50467 0.82233 -16.40325 12.22681 -35.72857 12.91063 0.00134 0.00465 -38.07846 -4.26094 2.24145 17.23537 -0.00303 0.00669 165.25041 -15.08600 0.94721 20.06983 -0.02315 0.00027 9.81092 -4.75951 3.20318 4.87702 -1.04400 3.60799 -41.57594 -8.45725 -7.72882 2.66501 0.00000 0.00001 -0.00000 0.00000 5.00000 2.54298 0.00000 0.00001 0.00000 0.00000 60.00001 9.23202 -0.30100 2.14399 -79.99999 -0.00000 -0.00000 4.22499 0.00000 -0.00001 -90.00000 -0.00001 0.00000 2.65399 -0.00001 0.00002 -70.00000 0.00000 -0.00000 8.92000 0.00000 0.00000 -79.99999 -0.00000 -0.00000 4.86301 0.00001 0.00001 -90.00000 -0.00001 0.00000 2.76499 0.00001 0.00000 -70.00000 0.00000 -0.00000 8.68902 -0.12600 -2.08702 -79.99999 -0.00000 -0.00000 4.53801 0.00000 0.00000 -90.00000 -0.00001 0.00000 2.30500 0.00001 0.00001 -70.00000 0.00000 -0.00000 8.39101 -0.81700 -3.75803 -79.99999 -0.00000 -0.00000 3.04400 0.00000 0.00000 -90.00000 -0.00001 0.00000 1.97499 0.00001 0.00000 -70.00000 0.00000 -0.00000 -0.89235 -0.32674 0.82242 11.14789 10.06010 41.56099 -11.27737 -0.00184 0.00082 43.01815 5.09010 -7.59255 -15.24235 0.00490 0.00442 80.25455 39.13607 70.10039 -20.44933 -0.02161 0.04922 18.91296 14.38493 15.44799 -4.87700 -1.04401 3.60800 37.43813 21.26626 8.20657 -2.66500 -0.00001 0.00000 0.00000 -0.00000 -5.00000 -2.54300 0.00000 0.00000 0.00001 0.00000 -60.00000 -9.23201 -0.30103 2.14398 80.00000 -0.00000 0.00001 -4.22499 -0.00000 0.00001 90.00000 0.00000 0.00001 -2.65400 0.00000 0.00000 70.00000 -0.00000 -0.00000 -8.92000 -0.00002 -0.00001 80.00000 -0.00000 0.00001 -4.86300 -0.00000 -0.00001 90.00000 0.00000 0.00001 -2.76500 -0.00002 0.00000 70.00000 -0.00000 -0.00000 -8.68901 -0.12600 -2.08701 80.00000 -0.00000 0.00001 -4.53799 -0.00000 0.00000 90.00000 0.00000 0.00001 -2.30500 0.00000 0.00001 70.00000 -0.00000 -0.00000 -8.39101 -0.81701 -3.75801 80.00000 -0.00000 0.00001 -3.04399 -0.00000 0.00000 90.00000 0.00000 0.00001 -1.97499 0.00000 0.00001 70.00000 -0.00000 -0.00000 0.00407 0.73212 -0.01195 0.00531 0.00310 0.00564 -0.00082 6.56779 -0.00171 4.49940 -11.75154 21.22721 
